<svg xmlns="http://www.w3.org/2000/svg" viewBox="0 0 960 540" role="img" data-vi-canvas="1" font-family="Inter, Roboto, system-ui, sans-serif" aria-label="A person's identity, role, and access, read from the compiled roster.">
<filter id="soft-shadow" x="-20%" y="-20%" width="140%" height="140%">
<feDropShadow dx="0" dy="5" stdDeviation="10" flood-color="#000000" flood-opacity="0.10"/>
</filter>
<g transform="translate(0, 24)">
<g transform="translate(24, 0)">
<rect x="0" width="96" height="96" rx="16" fill="var(--vi-surface-track, #F6F7F8)"/>
<g transform="translate(0,0) scale(0.48)">
<g fill="var(--vi-text-secondary, rgba(0,0,0,0.54))">
<circle cx="100" cy="78" r="32"/>
<path d="M48 166c0-32 24-50 52-50s52 18 52 50z"/>
</g>
</g>
</g>
<g transform="translate(144, 0)">
<text x="0" y="26" text-anchor="start" fill="var(--vi-text-primary, rgba(0,0,0,0.80))" font-weight="400" font-size="17">Dave Torvalds</text>
<text x="0" y="44" text-anchor="start" fill="var(--vi-text-secondary, rgba(0,0,0,0.54))" font-weight="400" font-size="13">Dave</text>
<g transform="translate(0, 66)">
<g transform="translate(0, 0)">
<rect x="0" width="175" height="24" rx="12" fill="var(--vi-surface-track, #F6F7F8)"/>
<g transform="translate(14, 0)">
<text x="0" y="16" text-anchor="start" fill="var(--vi-text-primary, rgba(0,0,0,0.80))" font-weight="400" font-size="13">Manager</text>
</g>
</g>
<g transform="translate(183, 0)">
<a href="/documentation/organization/engineering">
<rect x="0" width="175" height="24" rx="12" fill="var(--vi-surface-track, #F6F7F8)"/>
<g transform="translate(14, 0)">
<text x="0" y="16" text-anchor="start" fill="var(--vi-text-primary, rgba(0,0,0,0.80))" font-weight="400" font-size="13">Engineering</text>
</g>
</a>
</g>
<g transform="translate(366, 0)">
<rect x="0" width="175" height="24" rx="12" fill="var(--vi-surface-track, #F6F7F8)"/>
<g transform="translate(14, 0)">
<text x="0" y="16" text-anchor="start" fill="var(--vi-text-primary, rgba(0,0,0,0.80))" font-weight="400" font-size="13">OnSite</text>
</g>
</g>
</g>
</g>
<g transform="translate(692, 0)">
<g transform="translate(0, 32)">
<g transform="translate(0, 0)">
<circle cx="6" cy="0" r="6" fill="var(--vi-line, #EAECEE)"/>
</g>
<g transform="translate(22, 0)">
<text x="0" y="5" text-anchor="start" fill="var(--vi-text-secondary, rgba(0,0,0,0.54))" font-weight="400" font-size="13">Finance Vault</text>
</g>
</g>
<g transform="translate(0, 66)">
<g transform="translate(0, 0)">
<circle cx="6" cy="0" r="6" fill="var(--vi-action, #336FEE)"/>
</g>
<g transform="translate(22, 0)">
<text x="0" y="5" text-anchor="start" fill="var(--vi-text-secondary, rgba(0,0,0,0.54))" font-weight="400" font-size="13">Engineering Repo</text>
</g>
</g>
</g>
</g>
<g transform="translate(0, 120)">
<g transform="translate(32, 0)">
<text x="0" y="70" text-anchor="start" fill="var(--vi-text-primary, rgba(0,0,0,0.80))" font-weight="700" font-size="15">Sign in</text>
<text x="0" y="92" text-anchor="start" fill="var(--vi-text-secondary, rgba(0,0,0,0.54))" font-weight="400" font-size="13">Password: 1 4 1 4</text>
</g>
<g transform="translate(0, 110)">
<g transform="translate(32, 0)">
<rect width="300" height="300" fill="var(--vi-surface-card, #FFFFFF)"/>
<style>
.vi-state { display: none; }
.vi-state:target { display: inline; }
svg:not(:has(.vi-state:target)) #k0 { display: inline; }
</style>
<style>
.hover-lift { transform: translate(var(--tx), var(--ty)); transition: transform 150ms ease; cursor: pointer; }
.hover-lift:hover { transform: translate(var(--tx), calc(var(--ty) - 2px)); }
.hover-lift rect { transition: fill 150ms ease; }
.hover-lift:hover rect { fill: var(--vi-action-tint, rgba(66,139,249,0.16)); }
</style>
<g id="dead" class="vi-state">
<g transform="translate(0, 0)">
<rect x="0" width="285" height="285" rx="10" fill="var(--vi-surface-track, #F6F7F8)"/>
<g transform="translate(20, 0)">
<text x="0" y="130" text-anchor="start" fill="var(--vi-text-secondary, rgba(0,0,0,0.54))" font-weight="400" font-size="13">Off path — press reset</text>
<a href="#k0">
<text x="0" y="160" text-anchor="start" fill="var(--vi-action, #336FEE)" font-weight="700" font-size="15">reset</text>
</a>
</g>
</g>
</g>
<g id="k0" class="vi-state">
<g transform="translate(0, 15)">
<g transform="translate(15, 0)">
<a href="#k1">
<g class="hover-lift" style="--tx:0px;--ty:0px">
<rect x="0" width="80" height="80" rx="10" fill="var(--vi-surface-track, #F6F7F8)"/>
<text x="40" y="50" text-anchor="middle" fill="var(--vi-text-primary, rgba(0,0,0,0.80))" font-weight="700" font-size="28">1</text>
</g>
</a>
</g>
<g transform="translate(110, 0)">
<a href="#dead">
<g class="hover-lift" style="--tx:0px;--ty:0px">
<rect x="0" width="80" height="80" rx="10" fill="var(--vi-surface-track, #F6F7F8)"/>
<text x="40" y="50" text-anchor="middle" fill="var(--vi-text-primary, rgba(0,0,0,0.80))" font-weight="700" font-size="28">2</text>
</g>
</a>
</g>
<g transform="translate(205, 0)">
<a href="#dead">
<g class="hover-lift" style="--tx:0px;--ty:0px">
<rect x="0" width="80" height="80" rx="10" fill="var(--vi-surface-track, #F6F7F8)"/>
<text x="40" y="50" text-anchor="middle" fill="var(--vi-text-primary, rgba(0,0,0,0.80))" font-weight="700" font-size="28">3</text>
</g>
</a>
</g>
</g>
<g transform="translate(0, 110)">
<g transform="translate(15, 0)">
<a href="#dead">
<g class="hover-lift" style="--tx:0px;--ty:0px">
<rect x="0" width="80" height="80" rx="10" fill="var(--vi-surface-track, #F6F7F8)"/>
<text x="40" y="50" text-anchor="middle" fill="var(--vi-text-primary, rgba(0,0,0,0.80))" font-weight="700" font-size="28">4</text>
</g>
</a>
</g>
<g transform="translate(110, 0)">
<a href="#dead">
<g class="hover-lift" style="--tx:0px;--ty:0px">
<rect x="0" width="80" height="80" rx="10" fill="var(--vi-surface-track, #F6F7F8)"/>
<text x="40" y="50" text-anchor="middle" fill="var(--vi-text-primary, rgba(0,0,0,0.80))" font-weight="700" font-size="28">5</text>
</g>
</a>
</g>
<g transform="translate(205, 0)">
<a href="#dead">
<g class="hover-lift" style="--tx:0px;--ty:0px">
<rect x="0" width="80" height="80" rx="10" fill="var(--vi-surface-track, #F6F7F8)"/>
<text x="40" y="50" text-anchor="middle" fill="var(--vi-text-primary, rgba(0,0,0,0.80))" font-weight="700" font-size="28">6</text>
</g>
</a>
</g>
</g>
<g transform="translate(0, 205)">
<g transform="translate(15, 0)">
<a href="#dead">
<g class="hover-lift" style="--tx:0px;--ty:0px">
<rect x="0" width="80" height="80" rx="10" fill="var(--vi-surface-track, #F6F7F8)"/>
<text x="40" y="50" text-anchor="middle" fill="var(--vi-text-primary, rgba(0,0,0,0.80))" font-weight="700" font-size="28">7</text>
</g>
</a>
</g>
<g transform="translate(110, 0)">
<a href="#dead">
<g class="hover-lift" style="--tx:0px;--ty:0px">
<rect x="0" width="80" height="80" rx="10" fill="var(--vi-surface-track, #F6F7F8)"/>
<text x="40" y="50" text-anchor="middle" fill="var(--vi-text-primary, rgba(0,0,0,0.80))" font-weight="700" font-size="28">8</text>
</g>
</a>
</g>
<g transform="translate(205, 0)">
<a href="#dead">
<g class="hover-lift" style="--tx:0px;--ty:0px">
<rect x="0" width="80" height="80" rx="10" fill="var(--vi-surface-track, #F6F7F8)"/>
<text x="40" y="50" text-anchor="middle" fill="var(--vi-text-primary, rgba(0,0,0,0.80))" font-weight="700" font-size="28">9</text>
</g>
</a>
</g>
</g>
</g>
<g id="k1" class="vi-state">
<g transform="translate(0, 15)">
<g transform="translate(15, 0)">
<a href="#dead">
<g class="hover-lift" style="--tx:0px;--ty:0px">
<rect x="0" width="80" height="80" rx="10" fill="var(--vi-surface-track, #F6F7F8)"/>
<text x="40" y="50" text-anchor="middle" fill="var(--vi-text-primary, rgba(0,0,0,0.80))" font-weight="700" font-size="28">1</text>
</g>
</a>
</g>
<g transform="translate(110, 0)">
<a href="#dead">
<g class="hover-lift" style="--tx:0px;--ty:0px">
<rect x="0" width="80" height="80" rx="10" fill="var(--vi-surface-track, #F6F7F8)"/>
<text x="40" y="50" text-anchor="middle" fill="var(--vi-text-primary, rgba(0,0,0,0.80))" font-weight="700" font-size="28">2</text>
</g>
</a>
</g>
<g transform="translate(205, 0)">
<a href="#dead">
<g class="hover-lift" style="--tx:0px;--ty:0px">
<rect x="0" width="80" height="80" rx="10" fill="var(--vi-surface-track, #F6F7F8)"/>
<text x="40" y="50" text-anchor="middle" fill="var(--vi-text-primary, rgba(0,0,0,0.80))" font-weight="700" font-size="28">3</text>
</g>
</a>
</g>
</g>
<g transform="translate(0, 110)">
<g transform="translate(15, 0)">
<a href="#k2">
<g class="hover-lift" style="--tx:0px;--ty:0px">
<rect x="0" width="80" height="80" rx="10" fill="var(--vi-surface-track, #F6F7F8)"/>
<text x="40" y="50" text-anchor="middle" fill="var(--vi-text-primary, rgba(0,0,0,0.80))" font-weight="700" font-size="28">4</text>
</g>
</a>
</g>
<g transform="translate(110, 0)">
<a href="#dead">
<g class="hover-lift" style="--tx:0px;--ty:0px">
<rect x="0" width="80" height="80" rx="10" fill="var(--vi-surface-track, #F6F7F8)"/>
<text x="40" y="50" text-anchor="middle" fill="var(--vi-text-primary, rgba(0,0,0,0.80))" font-weight="700" font-size="28">5</text>
</g>
</a>
</g>
<g transform="translate(205, 0)">
<a href="#dead">
<g class="hover-lift" style="--tx:0px;--ty:0px">
<rect x="0" width="80" height="80" rx="10" fill="var(--vi-surface-track, #F6F7F8)"/>
<text x="40" y="50" text-anchor="middle" fill="var(--vi-text-primary, rgba(0,0,0,0.80))" font-weight="700" font-size="28">6</text>
</g>
</a>
</g>
</g>
<g transform="translate(0, 205)">
<g transform="translate(15, 0)">
<a href="#dead">
<g class="hover-lift" style="--tx:0px;--ty:0px">
<rect x="0" width="80" height="80" rx="10" fill="var(--vi-surface-track, #F6F7F8)"/>
<text x="40" y="50" text-anchor="middle" fill="var(--vi-text-primary, rgba(0,0,0,0.80))" font-weight="700" font-size="28">7</text>
</g>
</a>
</g>
<g transform="translate(110, 0)">
<a href="#dead">
<g class="hover-lift" style="--tx:0px;--ty:0px">
<rect x="0" width="80" height="80" rx="10" fill="var(--vi-surface-track, #F6F7F8)"/>
<text x="40" y="50" text-anchor="middle" fill="var(--vi-text-primary, rgba(0,0,0,0.80))" font-weight="700" font-size="28">8</text>
</g>
</a>
</g>
<g transform="translate(205, 0)">
<a href="#dead">
<g class="hover-lift" style="--tx:0px;--ty:0px">
<rect x="0" width="80" height="80" rx="10" fill="var(--vi-surface-track, #F6F7F8)"/>
<text x="40" y="50" text-anchor="middle" fill="var(--vi-text-primary, rgba(0,0,0,0.80))" font-weight="700" font-size="28">9</text>
</g>
</a>
</g>
</g>
</g>
<g id="k2" class="vi-state">
<g transform="translate(0, 15)">
<g transform="translate(15, 0)">
<a href="#k3">
<g class="hover-lift" style="--tx:0px;--ty:0px">
<rect x="0" width="80" height="80" rx="10" fill="var(--vi-surface-track, #F6F7F8)"/>
<text x="40" y="50" text-anchor="middle" fill="var(--vi-text-primary, rgba(0,0,0,0.80))" font-weight="700" font-size="28">1</text>
</g>
</a>
</g>
<g transform="translate(110, 0)">
<a href="#dead">
<g class="hover-lift" style="--tx:0px;--ty:0px">
<rect x="0" width="80" height="80" rx="10" fill="var(--vi-surface-track, #F6F7F8)"/>
<text x="40" y="50" text-anchor="middle" fill="var(--vi-text-primary, rgba(0,0,0,0.80))" font-weight="700" font-size="28">2</text>
</g>
</a>
</g>
<g transform="translate(205, 0)">
<a href="#dead">
<g class="hover-lift" style="--tx:0px;--ty:0px">
<rect x="0" width="80" height="80" rx="10" fill="var(--vi-surface-track, #F6F7F8)"/>
<text x="40" y="50" text-anchor="middle" fill="var(--vi-text-primary, rgba(0,0,0,0.80))" font-weight="700" font-size="28">3</text>
</g>
</a>
</g>
</g>
<g transform="translate(0, 110)">
<g transform="translate(15, 0)">
<a href="#dead">
<g class="hover-lift" style="--tx:0px;--ty:0px">
<rect x="0" width="80" height="80" rx="10" fill="var(--vi-surface-track, #F6F7F8)"/>
<text x="40" y="50" text-anchor="middle" fill="var(--vi-text-primary, rgba(0,0,0,0.80))" font-weight="700" font-size="28">4</text>
</g>
</a>
</g>
<g transform="translate(110, 0)">
<a href="#dead">
<g class="hover-lift" style="--tx:0px;--ty:0px">
<rect x="0" width="80" height="80" rx="10" fill="var(--vi-surface-track, #F6F7F8)"/>
<text x="40" y="50" text-anchor="middle" fill="var(--vi-text-primary, rgba(0,0,0,0.80))" font-weight="700" font-size="28">5</text>
</g>
</a>
</g>
<g transform="translate(205, 0)">
<a href="#dead">
<g class="hover-lift" style="--tx:0px;--ty:0px">
<rect x="0" width="80" height="80" rx="10" fill="var(--vi-surface-track, #F6F7F8)"/>
<text x="40" y="50" text-anchor="middle" fill="var(--vi-text-primary, rgba(0,0,0,0.80))" font-weight="700" font-size="28">6</text>
</g>
</a>
</g>
</g>
<g transform="translate(0, 205)">
<g transform="translate(15, 0)">
<a href="#dead">
<g class="hover-lift" style="--tx:0px;--ty:0px">
<rect x="0" width="80" height="80" rx="10" fill="var(--vi-surface-track, #F6F7F8)"/>
<text x="40" y="50" text-anchor="middle" fill="var(--vi-text-primary, rgba(0,0,0,0.80))" font-weight="700" font-size="28">7</text>
</g>
</a>
</g>
<g transform="translate(110, 0)">
<a href="#dead">
<g class="hover-lift" style="--tx:0px;--ty:0px">
<rect x="0" width="80" height="80" rx="10" fill="var(--vi-surface-track, #F6F7F8)"/>
<text x="40" y="50" text-anchor="middle" fill="var(--vi-text-primary, rgba(0,0,0,0.80))" font-weight="700" font-size="28">8</text>
</g>
</a>
</g>
<g transform="translate(205, 0)">
<a href="#dead">
<g class="hover-lift" style="--tx:0px;--ty:0px">
<rect x="0" width="80" height="80" rx="10" fill="var(--vi-surface-track, #F6F7F8)"/>
<text x="40" y="50" text-anchor="middle" fill="var(--vi-text-primary, rgba(0,0,0,0.80))" font-weight="700" font-size="28">9</text>
</g>
</a>
</g>
</g>
</g>
<g id="k3" class="vi-state">
<g transform="translate(0, 15)">
<g transform="translate(15, 0)">
<a href="#dead">
<g class="hover-lift" style="--tx:0px;--ty:0px">
<rect x="0" width="80" height="80" rx="10" fill="var(--vi-surface-track, #F6F7F8)"/>
<text x="40" y="50" text-anchor="middle" fill="var(--vi-text-primary, rgba(0,0,0,0.80))" font-weight="700" font-size="28">1</text>
</g>
</a>
</g>
<g transform="translate(110, 0)">
<a href="#dead">
<g class="hover-lift" style="--tx:0px;--ty:0px">
<rect x="0" width="80" height="80" rx="10" fill="var(--vi-surface-track, #F6F7F8)"/>
<text x="40" y="50" text-anchor="middle" fill="var(--vi-text-primary, rgba(0,0,0,0.80))" font-weight="700" font-size="28">2</text>
</g>
</a>
</g>
<g transform="translate(205, 0)">
<a href="#dead">
<g class="hover-lift" style="--tx:0px;--ty:0px">
<rect x="0" width="80" height="80" rx="10" fill="var(--vi-surface-track, #F6F7F8)"/>
<text x="40" y="50" text-anchor="middle" fill="var(--vi-text-primary, rgba(0,0,0,0.80))" font-weight="700" font-size="28">3</text>
</g>
</a>
</g>
</g>
<g transform="translate(0, 110)">
<g transform="translate(15, 0)">
<a href="/documentation/organization/daveunlocked">
<g class="hover-lift" style="--tx:0px;--ty:0px">
<rect x="0" width="80" height="80" rx="10" fill="var(--vi-surface-track, #F6F7F8)"/>
<text x="40" y="50" text-anchor="middle" fill="var(--vi-text-primary, rgba(0,0,0,0.80))" font-weight="700" font-size="28">4</text>
</g>
</a>
</g>
<g transform="translate(110, 0)">
<a href="#dead">
<g class="hover-lift" style="--tx:0px;--ty:0px">
<rect x="0" width="80" height="80" rx="10" fill="var(--vi-surface-track, #F6F7F8)"/>
<text x="40" y="50" text-anchor="middle" fill="var(--vi-text-primary, rgba(0,0,0,0.80))" font-weight="700" font-size="28">5</text>
</g>
</a>
</g>
<g transform="translate(205, 0)">
<a href="#dead">
<g class="hover-lift" style="--tx:0px;--ty:0px">
<rect x="0" width="80" height="80" rx="10" fill="var(--vi-surface-track, #F6F7F8)"/>
<text x="40" y="50" text-anchor="middle" fill="var(--vi-text-primary, rgba(0,0,0,0.80))" font-weight="700" font-size="28">6</text>
</g>
</a>
</g>
</g>
<g transform="translate(0, 205)">
<g transform="translate(15, 0)">
<a href="#dead">
<g class="hover-lift" style="--tx:0px;--ty:0px">
<rect x="0" width="80" height="80" rx="10" fill="var(--vi-surface-track, #F6F7F8)"/>
<text x="40" y="50" text-anchor="middle" fill="var(--vi-text-primary, rgba(0,0,0,0.80))" font-weight="700" font-size="28">7</text>
</g>
</a>
</g>
<g transform="translate(110, 0)">
<a href="#dead">
<g class="hover-lift" style="--tx:0px;--ty:0px">
<rect x="0" width="80" height="80" rx="10" fill="var(--vi-surface-track, #F6F7F8)"/>
<text x="40" y="50" text-anchor="middle" fill="var(--vi-text-primary, rgba(0,0,0,0.80))" font-weight="700" font-size="28">8</text>
</g>
</a>
</g>
<g transform="translate(205, 0)">
<a href="#dead">
<g class="hover-lift" style="--tx:0px;--ty:0px">
<rect x="0" width="80" height="80" rx="10" fill="var(--vi-surface-track, #F6F7F8)"/>
<text x="40" y="50" text-anchor="middle" fill="var(--vi-text-primary, rgba(0,0,0,0.80))" font-weight="700" font-size="28">9</text>
</g>
</a>
</g>
</g>
</g>
</g>
</g>
</g>
</svg>
