<svg xmlns="http://www.w3.org/2000/svg" viewBox="0 0 960 360" role="img" data-vi-canvas="1" font-family="Inter, Roboto, system-ui, sans-serif" aria-label="Company Pulse: headcount, departments, certified rules, and standing invariants, read live from the proved types. Each card links to its own page.">
<filter id="soft-shadow" x="-20%" y="-20%" width="140%" height="140%">
<feDropShadow dx="0" dy="5" stdDeviation="10" flood-color="#000000" flood-opacity="0.10"/>
</filter>
<filter id="surface-card-shadow" x="-20%" y="-20%" width="140%" height="140%">
<feDropShadow dx="0" dy="5" stdDeviation="10" flood-color="#000000" flood-opacity="var(--vi-surface-card-shadow-opacity, 0.10)"/>
</filter>
<style>
.hover-lift { transform: translate(var(--tx), var(--ty)); transition: transform 150ms ease; cursor: pointer; }
.hover-lift:hover { transform: translate(var(--tx), calc(var(--ty) - 2px)); }
</style>
<g transform="translate(0, 16)">
<g transform="translate(16, 0)">
<a href="/documentation/organization/employees">
<g class="hover-lift" style="--tx:0px;--ty:0px">
<g filter="url(#soft-shadow)">
<rect x="0" width="220" height="120" rx="16" fill="var(--vi-accent, #FFDD2D)"/>
</g>
<g transform="translate(20, 0)">
<text x="0" y="36" text-anchor="start" fill="var(--vi-on-accent, #1C1C1E)" font-weight="400" font-size="13">Headcount</text>
<text x="0" y="92" text-anchor="start" fill="var(--vi-on-accent, #1C1C1E)" font-weight="700" font-size="40">200</text>
</g>
</g>
</a>
</g>
<g transform="translate(252, 0)">
<a href="/documentation/organization/departments">
<g class="hover-lift" style="--tx:0px;--ty:0px">
<g filter="url(#surface-card-shadow)">
<rect x="0" width="220" height="120" rx="16" fill="var(--vi-surface-card, #FFFFFF)" stroke="var(--vi-line, #EAECEE)" stroke-width="1"/>
</g>
<g transform="translate(20, 0)">
<text x="0" y="36" text-anchor="start" fill="var(--vi-text-secondary, rgba(0,0,0,0.54))" font-weight="400" font-size="13">Departments</text>
<text x="0" y="92" text-anchor="start" fill="var(--vi-text-primary, rgba(0,0,0,0.80))" font-weight="700" font-size="40">4</text>
</g>
</g>
</a>
</g>
<g transform="translate(488, 0)">
<a href="/documentation/organization/reports">
<g class="hover-lift" style="--tx:0px;--ty:0px">
<g filter="url(#surface-card-shadow)">
<rect x="0" width="220" height="120" rx="16" fill="var(--vi-surface-card, #FFFFFF)" stroke="var(--vi-line, #EAECEE)" stroke-width="1"/>
</g>
<g transform="translate(20, 0)">
<text x="0" y="36" text-anchor="start" fill="var(--vi-text-secondary, rgba(0,0,0,0.54))" font-weight="400" font-size="13">Certified rules</text>
<text x="0" y="92" text-anchor="start" fill="var(--vi-text-primary, rgba(0,0,0,0.80))" font-weight="700" font-size="40">4</text>
</g>
</g>
</a>
</g>
<g transform="translate(724, 0)">
<a href="/documentation/organization/reports">
<g class="hover-lift" style="--tx:0px;--ty:0px">
<g filter="url(#surface-card-shadow)">
<rect x="0" width="220" height="120" rx="16" fill="var(--vi-surface-card, #FFFFFF)" stroke="var(--vi-line, #EAECEE)" stroke-width="1"/>
</g>
<g transform="translate(20, 0)">
<text x="0" y="36" text-anchor="start" fill="var(--vi-text-secondary, rgba(0,0,0,0.54))" font-weight="400" font-size="13">Invariants</text>
<text x="0" y="92" text-anchor="start" fill="var(--vi-text-primary, rgba(0,0,0,0.80))" font-weight="700" font-size="40">4</text>
</g>
</g>
<circle cx="110" cy="14" r="3" fill="var(--vi-action, #336FEE)"><animate attributeName="opacity" values="1;0.55;1" dur="4s" repeatCount="indefinite"/></circle>
</a>
</g>
</g>
<g transform="translate(0, 160)">
<g transform="translate(16, 0)">
<g transform="translate(0, 0)">
<rect x="0" width="440" height="32" rx="10" fill="var(--vi-surface-track, #F6F7F8)"/>
<rect x="0" width="99" height="32" rx="10" fill="var(--vi-action, #336FEE)"/>
<g transform="translate(12, 0)">
<text x="0" y="21" text-anchor="start" fill="var(--vi-text-primary, rgba(0,0,0,0.80))" font-weight="400" font-size="15">Finance</text>
<text x="416" y="21" text-anchor="end" fill="var(--vi-text-secondary, rgba(0,0,0,0.54))" font-weight="400" font-size="15">45</text>
</g>
</g>
<g transform="translate(0, 48)">
<rect x="0" width="440" height="32" rx="10" fill="var(--vi-surface-track, #F6F7F8)"/>
<rect x="0" width="156" height="32" rx="10" fill="var(--vi-action, #336FEE)"/>
<g transform="translate(12, 0)">
<text x="0" y="21" text-anchor="start" fill="var(--vi-text-primary, rgba(0,0,0,0.80))" font-weight="400" font-size="15">Engineering</text>
<text x="416" y="21" text-anchor="end" fill="var(--vi-text-secondary, rgba(0,0,0,0.54))" font-weight="400" font-size="15">71</text>
</g>
</g>
<g transform="translate(0, 96)">
<rect x="0" width="440" height="32" rx="10" fill="var(--vi-surface-track, #F6F7F8)"/>
<rect x="0" width="123" height="32" rx="10" fill="var(--vi-action, #336FEE)"/>
<g transform="translate(12, 0)">
<text x="0" y="21" text-anchor="start" fill="var(--vi-text-primary, rgba(0,0,0,0.80))" font-weight="400" font-size="15">Sales</text>
<text x="416" y="21" text-anchor="end" fill="var(--vi-text-secondary, rgba(0,0,0,0.54))" font-weight="400" font-size="15">56</text>
</g>
</g>
<g transform="translate(0, 144)">
<rect x="0" width="440" height="32" rx="10" fill="var(--vi-surface-track, #F6F7F8)"/>
<rect x="0" width="62" height="32" rx="10" fill="var(--vi-action, #336FEE)"/>
<g transform="translate(12, 0)">
<text x="0" y="21" text-anchor="start" fill="var(--vi-text-primary, rgba(0,0,0,0.80))" font-weight="400" font-size="15">People</text>
<text x="416" y="21" text-anchor="end" fill="var(--vi-text-secondary, rgba(0,0,0,0.54))" font-weight="400" font-size="15">28</text>
</g>
</g>
</g>
<g transform="translate(504, 0)">
<g transform="translate(0, 0)">
<clipPath id="workplace-split-clip">
<rect x="0" width="440" height="32" rx="10"/>
</clipPath>
<g clip-path="url(#workplace-split-clip)">
<rect x="0" width="440" height="32" rx="10" fill="var(--vi-surface-track, #F6F7F8)"/>
<rect x="0" width="150" height="32" rx="0" fill="var(--vi-action, #336FEE)"/>
<rect x="150" width="145" height="32" rx="0" fill="var(--vi-text-primary, rgba(0,0,0,0.80))"/>
<rect x="295" width="145" height="32" rx="0" fill="var(--vi-action-tint, rgba(66,139,249,0.16))" stroke="var(--vi-action, #336FEE)" stroke-width="1"/>
</g>
</g>
<g transform="translate(0, 48)">
<g transform="translate(0, 0)">
<rect x="0" width="140" height="32" rx="10" fill="var(--vi-surface-track, #F6F7F8)"/>
<g transform="translate(12, 0)">
<text x="0" y="21" text-anchor="start" fill="var(--vi-text-primary, rgba(0,0,0,0.80))" font-weight="400" font-size="13">On-site</text>
<text x="116" y="21" text-anchor="end" fill="var(--vi-text-primary, rgba(0,0,0,0.80))" font-weight="400" font-size="13">68</text>
</g>
</g>
<g transform="translate(148, 0)">
<rect x="0" width="140" height="32" rx="10" fill="var(--vi-surface-track, #F6F7F8)"/>
<g transform="translate(12, 0)">
<text x="0" y="21" text-anchor="start" fill="var(--vi-text-primary, rgba(0,0,0,0.80))" font-weight="400" font-size="13">Hybrid</text>
<text x="116" y="21" text-anchor="end" fill="var(--vi-text-primary, rgba(0,0,0,0.80))" font-weight="400" font-size="13">66</text>
</g>
</g>
<g transform="translate(296, 0)">
<rect x="0" width="140" height="32" rx="10" fill="var(--vi-surface-track, #F6F7F8)"/>
<g transform="translate(12, 0)">
<text x="0" y="21" text-anchor="start" fill="var(--vi-text-primary, rgba(0,0,0,0.80))" font-weight="400" font-size="13">Remote</text>
<text x="116" y="21" text-anchor="end" fill="var(--vi-text-primary, rgba(0,0,0,0.80))" font-weight="400" font-size="13">66</text>
</g>
</g>
</g>
</g>
</g>
<g transform="translate(0, 336)">
<g transform="translate(922, 0)">
<a href="/documentation/organization/pulsesource">
<rect x="0" width="30" height="20" rx="6" fill="var(--vi-surface-track, #F6F7F8)"/>
<g transform="translate(8, 0)">
<text x="0" y="14" text-anchor="start" fill="var(--vi-text-secondary, rgba(0,0,0,0.54))" font-weight="400" font-size="13">{ }</text>
</g>
</a>
</g>
</g>
</svg>
