<svg xmlns="http://www.w3.org/2000/svg" viewBox="0 0 240 148" role="img" data-vi-canvas="1" font-family="Inter, Roboto, system-ui, sans-serif" aria-label="The eight roles, each as its own colour swatch.">
<rect width="240" height="148" rx="16" fill="#1C1C1E"/>
<g transform="translate(4, 0)">
<g transform="translate(0, 16)">
<rect x="0" width="10" height="24" rx="4" fill="#1C1C1E" stroke="rgba(255,255,255,0.15)" stroke-width="1"/>
</g>
<text x="0" y="56" text-anchor="start" fill="rgba(255,255,255,0.90)" font-weight="400" font-size="13">Card</text>
</g>
<g transform="translate(19, 0)">
<g transform="translate(0, 16)">
<rect x="0" width="10" height="24" rx="4" fill="rgba(255,255,255,0.15)" stroke="rgba(255,255,255,0.15)" stroke-width="1"/>
</g>
<text x="0" y="56" text-anchor="start" fill="rgba(255,255,255,0.90)" font-weight="400" font-size="13">Track</text>
</g>
<g transform="translate(34, 0)">
<g transform="translate(0, 16)">
<rect x="0" width="10" height="24" rx="4" fill="rgba(255,255,255,0.90)" stroke="rgba(255,255,255,0.15)" stroke-width="1"/>
</g>
<text x="0" y="56" text-anchor="start" fill="rgba(255,255,255,0.90)" font-weight="400" font-size="13">Primary</text>
</g>
<g transform="translate(49, 0)">
<g transform="translate(0, 16)">
<rect x="0" width="10" height="24" rx="4" fill="rgba(255,255,255,0.70)" stroke="rgba(255,255,255,0.15)" stroke-width="1"/>
</g>
<text x="0" y="56" text-anchor="start" fill="rgba(255,255,255,0.90)" font-weight="400" font-size="13">Secondary</text>
</g>
<g transform="translate(4, 0)">
<g transform="translate(0, 76)">
<rect x="0" width="10" height="24" rx="4" fill="#FFDD2D" stroke="rgba(255,255,255,0.15)" stroke-width="1"/>
</g>
<text x="0" y="116" text-anchor="start" fill="rgba(255,255,255,0.90)" font-weight="400" font-size="13">Accent</text>
</g>
<g transform="translate(19, 0)">
<g transform="translate(0, 76)">
<rect x="0" width="10" height="24" rx="4" fill="#4972CF" stroke="rgba(255,255,255,0.15)" stroke-width="1"/>
</g>
<text x="0" y="116" text-anchor="start" fill="rgba(255,255,255,0.90)" font-weight="400" font-size="13">Action</text>
</g>
<g transform="translate(34, 0)">
<g transform="translate(0, 76)">
<rect x="0" width="10" height="24" rx="4" fill="rgba(255,255,255,0.15)" stroke="rgba(255,255,255,0.15)" stroke-width="1"/>
</g>
<text x="0" y="116" text-anchor="start" fill="rgba(255,255,255,0.90)" font-weight="400" font-size="13">Line</text>
</g>
<g transform="translate(49, 0)">
<g transform="translate(0, 76)">
<rect x="0" width="10" height="24" rx="4" fill="#1C1C1E" stroke="rgba(255,255,255,0.15)" stroke-width="1"/>
</g>
<text x="0" y="116" text-anchor="start" fill="rgba(255,255,255,0.90)" font-weight="400" font-size="13">On accent</text>
</g>

</svg>
