<svg xmlns="http://www.w3.org/2000/svg" viewBox="0 0 960 326" role="img" data-vi-canvas="1" font-family="Inter, Roboto, system-ui, sans-serif" aria-label="One company, two checkers: paired horizontal bars, a bar's width is its seconds. swift build proves the whole package in 34, 82, and 199 seconds at N = 3200, 6400, and 12800. The judge reads the same company file in 0.28, 0.55, and 1.10 seconds: each doubling of N doubles the judge, and the build grows near N to the 1.3.">
<filter id="soft-shadow" x="-20%" y="-20%" width="140%" height="140%">
<feDropShadow dx="0" dy="5" stdDeviation="10" flood-color="#000000" flood-opacity="0.10"/>
</filter>
<g transform="translate(0, 0)">
<g transform="translate(0, 0)">
<g transform="translate(0, 0)">
<rect x="0" width="960" height="326" rx="12" fill="var(--vi-surface-card, #FFFFFF)" stroke="var(--vi-line, #EAECEE)" stroke-width="1"/>
</g>
</g>
<g transform="translate(0, 0)">
<g transform="translate(0, 0)">
<text x="480" y="24" text-anchor="middle" fill="var(--vi-text-primary, rgba(0,0,0,0.80))" font-weight="700" font-size="15">One company, two checkers</text>
</g>
</g>
<g transform="translate(0, 36)">
<g transform="translate(112, 0)">
<g transform="translate(0, 6)">
<rect x="0" width="18" height="12" rx="4" fill="var(--vi-accent, #FFDD2D)"/>
</g>
</g>
<g transform="translate(138, 0)">
<text x="0" y="16" text-anchor="start" fill="var(--vi-text-secondary, rgba(0,0,0,0.54))" font-weight="400" font-size="11">swift build, the whole package</text>
</g>
<g transform="translate(330, 0)">
<g transform="translate(0, 6)">
<rect x="0" width="18" height="12" rx="4" fill="var(--vi-action, #336FEE)"/>
</g>
</g>
<g transform="translate(356, 0)">
<text x="0" y="16" text-anchor="start" fill="var(--vi-text-secondary, rgba(0,0,0,0.54))" font-weight="400" font-size="11">the judge, the same company file</text>
</g>
</g>
<g transform="translate(0, 70)">
<g transform="translate(16, 0)">
<text x="0" y="16" text-anchor="start" fill="var(--vi-text-primary, rgba(0,0,0,0.80))" font-weight="700" font-size="13">N = 3200</text>
</g>
<g transform="translate(112, 0)">
<rect x="0" width="102" height="24" rx="6" fill="var(--vi-accent, #FFDD2D)"/>
</g>
<g transform="translate(222, 0)">
<text x="0" y="16" text-anchor="start" fill="var(--vi-text-secondary, rgba(0,0,0,0.54))" font-weight="400" font-size="11">34 s</text>
</g>
</g>
<g transform="translate(0, 98)">
<g transform="translate(112, 0)">
<rect x="0" width="8" height="24" rx="1" fill="var(--vi-action, #336FEE)"/>
</g>
<g transform="translate(128, 0)">
<text x="0" y="16" text-anchor="start" fill="var(--vi-text-secondary, rgba(0,0,0,0.54))" font-weight="400" font-size="11">0.28 s</text>
</g>
</g>
<g transform="translate(0, 144)">
<g transform="translate(16, 0)">
<text x="0" y="16" text-anchor="start" fill="var(--vi-text-primary, rgba(0,0,0,0.80))" font-weight="700" font-size="13">N = 6400</text>
</g>
<g transform="translate(112, 0)">
<rect x="0" width="246" height="24" rx="6" fill="var(--vi-accent, #FFDD2D)"/>
</g>
<g transform="translate(366, 0)">
<text x="0" y="16" text-anchor="start" fill="var(--vi-text-secondary, rgba(0,0,0,0.54))" font-weight="400" font-size="11">82 s</text>
</g>
</g>
<g transform="translate(0, 172)">
<g transform="translate(112, 0)">
<rect x="0" width="8" height="24" rx="1" fill="var(--vi-action, #336FEE)"/>
</g>
<g transform="translate(128, 0)">
<text x="0" y="16" text-anchor="start" fill="var(--vi-text-secondary, rgba(0,0,0,0.54))" font-weight="400" font-size="11">0.55 s</text>
</g>
</g>
<g transform="translate(0, 218)">
<g transform="translate(16, 0)">
<text x="0" y="16" text-anchor="start" fill="var(--vi-text-primary, rgba(0,0,0,0.80))" font-weight="700" font-size="13">N = 12800</text>
</g>
<g transform="translate(112, 0)">
<rect x="0" width="597" height="24" rx="6" fill="var(--vi-accent, #FFDD2D)"/>
</g>
<g transform="translate(717, 0)">
<text x="0" y="16" text-anchor="start" fill="var(--vi-text-secondary, rgba(0,0,0,0.54))" font-weight="400" font-size="11">199 s</text>
</g>
</g>
<g transform="translate(0, 246)">
<g transform="translate(112, 0)">
<rect x="0" width="8" height="24" rx="1" fill="var(--vi-action, #336FEE)"/>
</g>
<g transform="translate(128, 0)">
<text x="0" y="16" text-anchor="start" fill="var(--vi-text-secondary, rgba(0,0,0,0.54))" font-weight="400" font-size="11">1.10 s</text>
</g>
</g>
<g transform="translate(0, 62)">
<g transform="translate(16, 0)">
<line x1="0" y1="214" x2="928" y2="214" stroke="var(--vi-text-secondary, rgba(0,0,0,0.54))" stroke-width="2"/>
</g>
</g>
<g transform="translate(0, 276)">
<g transform="translate(0, 0)">
<text x="480" y="16" text-anchor="middle" fill="var(--vi-text-secondary, rgba(0,0,0,0.54))" font-weight="400" font-size="10">a bar's width is its seconds · the judge's bar is one hair wide, its exact seconds stand in the label</text>
</g>
</g>
<g transform="translate(0, 300)">
<g transform="translate(0, 0)">
<text x="480" y="16" text-anchor="middle" fill="var(--vi-text-secondary, rgba(0,0,0,0.54))" font-weight="400" font-size="10">each doubling of N doubles the judge, the build grows near N^1.3 · reproduce: swift run Tools curve --judge 3200 6400 12800</text>
</g>
</g>
</g>
</svg>
