<svg xmlns="http://www.w3.org/2000/svg" viewBox="0 0 960 326" role="img" data-vi-canvas="1" font-family="Inter, Roboto, system-ui, sans-serif" aria-label="Build seconds against the number of generated employees, grouped bars on a log scale, one color per code layout, true seconds printed on each bar. Flat bodies grow near-quadratic, slices drop the exponent, shards drop the constant. At 6400 the Organization target builds in 241 seconds while the full package aborts in the compiler frontend.">
<filter id="soft-shadow" x="-20%" y="-20%" width="140%" height="140%">
<feDropShadow dx="0" dy="5" stdDeviation="10" flood-color="#000000" flood-opacity="0.10"/>
</filter>
<g transform="translate(0, 0)">
<g transform="translate(0, 0)">
<g transform="translate(0, 0)">
<rect x="0" width="960" height="326" rx="12" fill="var(--vi-surface-card, #FFFFFF)" stroke="var(--vi-line, #EAECEE)" stroke-width="1"/>
</g>
</g>
<g transform="translate(0, 0)">
<g transform="translate(0, 0)">
<text x="480" y="24" text-anchor="middle" fill="var(--vi-text-primary, rgba(0,0,0,0.80))" font-weight="700" font-size="15">swift build seconds against N generated employees</text>
</g>
</g>
<g transform="translate(0, 36)">
<g transform="translate(16, 0)">
<g transform="translate(0, 6)">
<rect x="0" width="18" height="12" rx="6" fill="var(--vi-surface-track, #F6F7F8)"/>
</g>
</g>
<g transform="translate(42, 0)">
<text x="60" y="16" text-anchor="middle" fill="var(--vi-text-secondary, rgba(0,0,0,0.54))" font-weight="400" font-size="10">flat bodies</text>
</g>
<g transform="translate(178, 0)">
<g transform="translate(0, 6)">
<rect x="0" width="18" height="12" rx="6" fill="#1C1C1E"/>
</g>
</g>
<g transform="translate(204, 0)">
<text x="60" y="16" text-anchor="middle" fill="var(--vi-text-secondary, rgba(0,0,0,0.54))" font-weight="400" font-size="10">folded into slices</text>
</g>
<g transform="translate(340, 0)">
<g transform="translate(0, 6)">
<rect x="0" width="18" height="12" rx="6" fill="var(--vi-action, #336FEE)"/>
</g>
</g>
<g transform="translate(366, 0)">
<text x="60" y="16" text-anchor="middle" fill="var(--vi-text-secondary, rgba(0,0,0,0.54))" font-weight="400" font-size="10">sliced and sharded</text>
</g>
<g transform="translate(502, 0)">
<g transform="translate(0, 6)">
<rect x="0" width="18" height="12" rx="6" fill="var(--vi-accent, #FFDD2D)"/>
</g>
</g>
<g transform="translate(528, 0)">
<text x="95" y="16" text-anchor="middle" fill="var(--vi-text-secondary, rgba(0,0,0,0.54))" font-weight="400" font-size="10">Organization target alone</text>
</g>
</g>
<g transform="translate(0, 62)">
<g transform="translate(16, 0)">
<g transform="translate(12, 0)">
<g transform="translate(0, 135)">
<rect x="0" width="40" height="75" rx="6" fill="var(--vi-surface-track, #F6F7F8)"/>
<text x="20" y="-6" text-anchor="middle" fill="var(--vi-text-secondary, rgba(0,0,0,0.54))" font-weight="400" font-size="10">12</text>
</g>
</g>
<g transform="translate(60, 0)">
<g transform="translate(0, 140)">
<rect x="0" width="40" height="70" rx="6" fill="#1C1C1E"/>
<text x="20" y="-6" text-anchor="middle" fill="var(--vi-text-secondary, rgba(0,0,0,0.54))" font-weight="400" font-size="10">10</text>
</g>
</g>
<g transform="translate(108, 0)">
<g transform="translate(0, 137)">
<rect x="0" width="40" height="73" rx="6" fill="var(--vi-action, #336FEE)"/>
<text x="20" y="-6" text-anchor="middle" fill="var(--vi-text-secondary, rgba(0,0,0,0.54))" font-weight="400" font-size="10">11</text>
</g>
</g>
</g>
<g transform="translate(192, 0)">
<g transform="translate(12, 0)">
<g transform="translate(0, 99)">
<rect x="0" width="40" height="111" rx="6" fill="var(--vi-surface-track, #F6F7F8)"/>
<text x="20" y="-6" text-anchor="middle" fill="var(--vi-text-secondary, rgba(0,0,0,0.54))" font-weight="400" font-size="10">39</text>
</g>
</g>
<g transform="translate(60, 0)">
<g transform="translate(0, 115)">
<rect x="0" width="40" height="95" rx="6" fill="#1C1C1E"/>
<text x="20" y="-6" text-anchor="middle" fill="var(--vi-text-secondary, rgba(0,0,0,0.54))" font-weight="400" font-size="10">23</text>
</g>
</g>
<g transform="translate(108, 0)">
<g transform="translate(0, 128)">
<rect x="0" width="40" height="82" rx="6" fill="var(--vi-action, #336FEE)"/>
<text x="20" y="-6" text-anchor="middle" fill="var(--vi-text-secondary, rgba(0,0,0,0.54))" font-weight="400" font-size="10">15</text>
</g>
</g>
</g>
<g transform="translate(368, 0)">
<g transform="translate(12, 0)">
<g transform="translate(0, 50)">
<rect x="0" width="40" height="160" rx="6" fill="var(--vi-surface-track, #F6F7F8)"/>
<text x="20" y="-6" text-anchor="middle" fill="var(--vi-text-secondary, rgba(0,0,0,0.54))" font-weight="400" font-size="10">192</text>
</g>
</g>
<g transform="translate(60, 0)">
<g transform="translate(0, 81)">
<rect x="0" width="40" height="129" rx="6" fill="#1C1C1E"/>
<text x="20" y="-6" text-anchor="middle" fill="var(--vi-text-secondary, rgba(0,0,0,0.54))" font-weight="400" font-size="10">70</text>
</g>
</g>
<g transform="translate(108, 0)">
<g transform="translate(0, 107)">
<rect x="0" width="40" height="103" rx="6" fill="var(--vi-action, #336FEE)"/>
<text x="20" y="-6" text-anchor="middle" fill="var(--vi-text-secondary, rgba(0,0,0,0.54))" font-weight="400" font-size="10">30</text>
</g>
</g>
</g>
<g transform="translate(544, 0)">
<g transform="translate(12, 0)">
<g transform="translate(0, 8)">
<rect x="0" width="40" height="202" rx="6" fill="var(--vi-surface-track, #F6F7F8)"/>
<text x="20" y="-6" text-anchor="middle" fill="var(--vi-text-secondary, rgba(0,0,0,0.54))" font-weight="400" font-size="10">>780</text>
</g>
</g>
<g transform="translate(60, 0)">
<g transform="translate(0, 44)">
<rect x="0" width="40" height="166" rx="6" fill="#1C1C1E"/>
<text x="20" y="-6" text-anchor="middle" fill="var(--vi-text-secondary, rgba(0,0,0,0.54))" font-weight="400" font-size="10">235</text>
</g>
</g>
<g transform="translate(108, 0)">
<g transform="translate(0, 75)">
<rect x="0" width="40" height="135" rx="6" fill="var(--vi-action, #336FEE)"/>
<text x="20" y="-6" text-anchor="middle" fill="var(--vi-text-secondary, rgba(0,0,0,0.54))" font-weight="400" font-size="10">86</text>
</g>
</g>
</g>
<g transform="translate(720, 0)">
<g transform="translate(60, 0)">
<g transform="translate(0, 43)">
<rect x="0" width="40" height="167" rx="6" fill="var(--vi-accent, #FFDD2D)"/>
<text x="20" y="-6" text-anchor="middle" fill="var(--vi-text-secondary, rgba(0,0,0,0.54))" font-weight="400" font-size="10">241</text>
</g>
</g>
</g>
</g>
<g transform="translate(0, 62)">
<g transform="translate(16, 0)">
<line x1="0" y1="214" x2="928" y2="214" stroke="var(--vi-text-secondary, rgba(0,0,0,0.54))" stroke-width="2"/>
</g>
</g>
<g transform="translate(0, 276)">
<g transform="translate(16, 0)">
<text x="80" y="16" text-anchor="middle" fill="var(--vi-text-primary, rgba(0,0,0,0.80))" font-weight="700" font-size="11">400</text>
</g>
<g transform="translate(192, 0)">
<text x="80" y="16" text-anchor="middle" fill="var(--vi-text-primary, rgba(0,0,0,0.80))" font-weight="700" font-size="11">800</text>
</g>
<g transform="translate(368, 0)">
<text x="80" y="16" text-anchor="middle" fill="var(--vi-text-primary, rgba(0,0,0,0.80))" font-weight="700" font-size="11">1600</text>
</g>
<g transform="translate(544, 0)">
<text x="80" y="16" text-anchor="middle" fill="var(--vi-text-primary, rgba(0,0,0,0.80))" font-weight="700" font-size="11">3200</text>
</g>
<g transform="translate(720, 0)">
<g transform="translate(10, 0)">
<text x="70" y="16" text-anchor="middle" fill="var(--vi-text-primary, rgba(0,0,0,0.80))" font-weight="700" font-size="11">6400</text>
<g transform="translate(0, 20)">
<text x="70" y="-6" text-anchor="middle" fill="var(--vi-text-secondary, rgba(0,0,0,0.54))" font-weight="400" font-size="10">site: frontend abort</text>
</g>
</g>
</g>
</g>
<g transform="translate(0, 300)">
<g transform="translate(0, 0)">
<text x="480" y="16" text-anchor="middle" fill="var(--vi-text-secondary, rgba(0,0,0,0.54))" font-weight="400" font-size="10">log-scale bars, true seconds on each · reproduce: swift run Tools curve 400 800 1600 3200</text>
</g>
</g>
</g>
</svg>
